<svg width="169" height="36" viewBox="0 0 169 36" fill="none" xmlns="http://www.w3.org/2000/svg">
<path d="M11.0713 18.7924C13.2003 25.1761 18.3098 29.675 27.3124 22.0754L20.7429 18.6709C20.7429 18.6709 31.3879 19.522 41.1203 13.5032C35.2808 23.109 36.6191 33.2012 36.6191 33.2012L32.7869 27.0608C13.4436 43.6582 6.20504 32.1069 6.3267 20.13C7.96906 19.5828 9.55059 19.0964 11.0713 18.7924Z" fill="url(#paint0_linear)"/>
<path d="M30.049 16.543C27.9201 10.1594 22.8105 5.66042 13.808 13.26L20.3774 16.6646C20.3774 16.6646 9.73248 15.8134 0 21.8323C5.83949 12.2264 4.50128 2.13424 4.50128 2.13424L8.33344 8.27468C27.6768 -8.32274 34.9153 3.22857 34.7936 15.2055C33.0905 15.8134 31.5089 16.239 30.049 16.543Z" fill="url(#paint1_linear)"/>
<path d="M168.395 12.8457C168.222 13.2777 168.049 13.7097 167.877 14.185C167.704 14.1418 167.358 14.0122 166.839 13.8825C166.364 13.7529 165.802 13.6665 165.283 13.6665C164.159 13.6665 163.467 14.0122 163.251 14.7466C163.122 15.0922 163.165 15.3947 163.338 15.6971C163.511 15.9995 163.727 16.2587 164.029 16.5179C164.332 16.7772 164.635 17.0796 165.024 17.382C165.369 17.6844 165.715 18.0301 165.975 18.3757C166.234 18.7645 166.407 19.1965 166.536 19.6718C166.623 20.147 166.58 20.7519 166.407 21.3999C166.234 21.9616 165.975 22.5232 165.629 23.0416C165.283 23.5601 164.894 23.9921 164.375 24.3809C163.9 24.7698 163.295 25.029 162.603 25.245C161.911 25.461 161.177 25.5906 160.312 25.5906C159.75 25.5906 159.231 25.5474 158.799 25.461C158.367 25.3746 157.978 25.245 157.675 25.1586C157.373 25.029 157.07 24.9426 156.854 24.813C156.638 24.6834 156.465 24.597 156.335 24.5105L157.718 22.048C157.805 22.0912 157.935 22.1344 158.151 22.264C158.367 22.3504 158.583 22.48 158.842 22.5664C159.102 22.6528 159.361 22.7392 159.664 22.8256C159.966 22.912 160.269 22.9552 160.571 22.9552C161.09 22.9552 161.522 22.8688 161.868 22.696C162.214 22.5232 162.43 22.1776 162.603 21.6591C162.733 21.2703 162.689 20.9247 162.56 20.6222C162.387 20.3198 162.171 20.0174 161.911 19.7582C161.652 19.499 161.349 19.1965 161.004 18.8941C160.658 18.5917 160.355 18.2461 160.139 17.8572C159.88 17.4684 159.707 17.0796 159.62 16.6044C159.534 16.1291 159.577 15.6107 159.793 14.9626C160.182 13.7097 160.917 12.7593 161.911 12.0248C162.949 11.3335 164.159 10.9879 165.672 10.9879C166.58 10.9879 167.315 11.0743 167.833 11.2039C168.352 11.3336 168.741 11.4632 169 11.5496C168.741 11.9384 168.568 12.3704 168.395 12.8457ZM150.629 25.1586L150.932 23.5169C150.629 23.7329 150.327 23.9921 149.981 24.2081C149.635 24.4241 149.246 24.6402 148.857 24.813C148.468 24.9858 148.036 25.1586 147.604 25.2882C147.171 25.4178 146.739 25.461 146.264 25.461C145.658 25.461 145.14 25.3314 144.707 25.0722C144.275 24.813 143.929 24.3809 143.713 23.8193C143.497 23.2577 143.411 22.5232 143.454 21.6591C143.497 20.7519 143.713 19.715 144.102 18.4621C144.535 17.0796 145.053 15.8699 145.658 14.9194C146.264 13.969 146.912 13.1913 147.604 12.5865C148.295 11.9816 149.03 11.5928 149.808 11.2904C150.586 11.0311 151.321 10.9015 152.099 10.9015C152.488 10.9015 152.834 10.9447 153.223 11.0743C153.612 11.2039 153.958 11.3336 154.304 11.5064L156.162 5.58752L159.923 5.02588L153.655 25.1154H150.629V25.1586ZM152.834 13.8825C152.575 13.7961 152.315 13.7529 152.013 13.7529C151.148 13.7529 150.37 14.0986 149.765 14.7466C149.16 15.3947 148.555 16.5179 148.036 18.1597C147.777 18.9805 147.604 19.6718 147.517 20.1902C147.431 20.7519 147.431 21.1839 147.517 21.4863C147.604 21.8319 147.733 22.048 147.949 22.1776C148.166 22.3072 148.468 22.3936 148.771 22.3936C149.246 22.3936 149.722 22.264 150.154 21.9616C150.629 21.7023 151.018 21.3999 151.321 21.0975L153.482 14.2282C153.309 14.0986 153.05 14.0122 152.834 13.8825ZM143.108 14.185C142.849 14.0986 142.589 14.0554 142.33 14.0554C141.984 14.0554 141.595 14.1418 141.249 14.3578C140.86 14.5738 140.385 14.9194 139.78 15.3947L136.754 25.1586H133.166L137.532 11.2039H140.731L140.342 13.0617H140.385C140.904 12.4136 141.466 11.8952 142.157 11.5064C142.806 11.0743 143.454 10.9015 144.059 10.9015C144.318 10.9015 144.535 10.9447 144.707 10.9879C144.88 11.0311 144.967 11.1175 145.053 11.1175L143.757 14.3578C143.54 14.3146 143.368 14.2714 143.108 14.185ZM131.135 21.5727C130.573 22.48 129.924 23.2577 129.233 23.8193C128.541 24.4241 127.763 24.813 126.985 25.1154C126.164 25.3746 125.342 25.5042 124.435 25.5042C123.527 25.5042 122.749 25.3746 122.1 25.1154C121.452 24.8562 120.977 24.4241 120.631 23.8193C120.285 23.2145 120.155 22.48 120.155 21.5727C120.155 20.6655 120.371 19.5422 120.804 18.2029C121.193 16.9068 121.711 15.7835 122.273 14.8762C122.835 13.969 123.484 13.1913 124.175 12.6296C124.867 12.0248 125.645 11.636 126.423 11.3335C127.244 11.0743 128.109 10.9447 128.973 10.9447C129.838 10.9447 130.659 11.0743 131.264 11.3335C131.913 11.5928 132.388 12.0248 132.734 12.6296C133.08 13.2345 133.253 13.969 133.253 14.8762C133.253 15.7835 133.037 16.9068 132.648 18.2029C132.172 19.499 131.697 20.6223 131.135 21.5727ZM129.406 14.6602C129.276 13.9257 128.844 13.5801 128.109 13.5801C127.374 13.5801 126.682 13.9257 126.12 14.6602C125.558 15.3947 124.997 16.5611 124.521 18.1597C124.002 19.8014 123.786 20.9679 123.916 21.7023C124.046 22.4368 124.478 22.7824 125.213 22.7824C125.948 22.7824 126.639 22.4368 127.201 21.7023C127.763 20.9679 128.325 19.8014 128.844 18.1597C129.362 16.5611 129.535 15.3947 129.406 14.6602ZM109.781 25.1586L110.905 13.7529L104.853 25.1586H101.395L103.297 7.27244H107.058L105.415 19.3694L111.078 8.69816H113.974L112.937 19.3694L118.945 7.27244H122.576L113.282 25.1586H109.781ZM98.4992 13.8825C98.1101 13.7529 97.6779 13.7097 97.2024 13.7097C96.2946 13.7097 95.5166 14.0554 94.9114 14.7898C94.263 15.5243 93.7011 16.6475 93.1824 18.2461C92.923 19.0237 92.7934 19.715 92.7069 20.2766C92.6204 20.8383 92.6637 21.2703 92.7934 21.6159C92.923 21.9616 93.0959 22.2208 93.3553 22.3504C93.6146 22.5232 93.9604 22.5664 94.3495 22.5664C94.6088 22.5664 94.9114 22.5232 95.1708 22.48C95.4301 22.4368 95.6895 22.3504 95.9488 22.264C96.2082 22.1776 96.4243 22.0912 96.5972 22.0048C96.7701 21.9184 96.943 21.8752 97.0295 21.8319L97.1159 24.1649C96.943 24.2081 96.7701 24.2945 96.4675 24.4674C96.2082 24.597 95.8624 24.7266 95.5166 24.8994C95.1275 25.029 94.7385 25.1586 94.263 25.2882C93.7875 25.4178 93.3121 25.461 92.7934 25.461C90.9779 25.461 89.7675 24.8994 89.1624 23.7329C88.5572 22.5664 88.6437 20.7951 89.3785 18.3757C90.1998 15.8267 91.2804 13.969 92.6637 12.7161C94.0469 11.4632 95.6895 10.8583 97.5914 10.8583C98.3263 10.8583 98.9746 10.9447 99.4933 11.0743C100.012 11.2039 100.401 11.3336 100.617 11.42L99.3204 14.0986C99.1475 14.0986 98.8882 14.0122 98.4992 13.8825ZM84.6669 25.1586H81.0359L83.6727 16.6476C83.9753 15.6539 84.105 14.9626 84.0185 14.617C83.9321 14.2714 83.6295 14.0554 83.0676 14.0554C82.8082 14.0554 82.5056 14.0986 82.2463 14.2282C81.9869 14.3578 81.6843 14.4874 81.425 14.6602C81.1656 14.833 80.9495 15.0058 80.7334 15.1786C80.5172 15.3515 80.3876 15.4811 80.2579 15.5675L77.2753 25.1154H73.6876L78.0534 11.1607H81.2521L80.8198 12.9753H80.863C80.9927 12.8889 81.2088 12.7161 81.4682 12.5C81.7708 12.284 82.1166 12.0248 82.5488 11.8088C82.9811 11.5496 83.4566 11.3335 83.9321 11.1607C84.4508 10.9879 85.0127 10.9015 85.5746 10.9015C86.8282 10.9015 87.6495 11.2904 87.9088 12.1112C88.2114 12.8889 88.0817 14.1418 87.563 15.7835L84.6669 25.1586ZM67.5495 30.3862C66.4256 31.2935 64.9992 31.7255 63.1837 31.7255C62.2327 31.7255 61.3682 31.6391 60.6334 31.4231C59.8985 31.2071 59.3366 31.0342 58.9476 30.9046L60.1147 28.3988C60.4605 28.5284 60.8927 28.6581 61.4979 28.7877C62.1031 28.9173 62.7082 29.0037 63.3566 29.0037C63.6592 29.0037 63.9618 28.9605 64.2643 28.9173C64.5237 28.8741 64.7831 28.7445 65.0424 28.5717C65.3018 28.3988 65.5179 28.1396 65.734 27.794C65.9502 27.4484 66.1231 27.0163 66.3392 26.4547L67.3334 23.4305H67.2902C67.1605 23.5169 66.9876 23.6897 66.685 23.9057C66.4256 24.1217 66.0798 24.3809 65.6908 24.597C65.3018 24.8562 64.8695 25.0722 64.3508 25.245C63.8753 25.4178 63.3566 25.5042 62.7947 25.5042C61.5411 25.5042 60.7198 25.1154 60.4605 24.2945C60.1579 23.5169 60.2876 22.264 60.8063 20.6222L63.7456 11.2039H67.4198L64.7398 19.715C64.5669 20.2334 64.4805 20.6223 64.394 20.9679C64.3076 21.3135 64.3076 21.5727 64.3508 21.7455C64.394 21.9616 64.4805 22.0912 64.6534 22.1776C64.8263 22.264 65.0424 22.3072 65.3018 22.3072C65.5611 22.3072 65.8637 22.264 66.1231 22.1344C66.3824 22.0048 66.685 21.8751 66.9443 21.7023C67.2037 21.5295 67.4198 21.3567 67.636 21.1839C67.8521 21.0111 67.9818 20.8815 68.1114 20.7951L71.1372 11.2471H74.7682L70.0566 26.3683C69.4947 28.1396 68.6734 29.4789 67.5495 30.3862ZM59.9418 10.6423C59.7256 10.5127 59.5095 10.4263 59.2069 10.2967C58.9476 10.1671 58.645 10.0807 58.2992 9.95105C57.9966 9.86464 57.6508 9.82143 57.2618 9.82143C56.8295 9.82143 56.4837 9.90784 56.1379 10.0374C55.7921 10.1671 55.5327 10.3399 55.2734 10.5559C55.014 10.7719 54.7979 10.9879 54.6682 11.2039C54.4953 11.42 54.4089 11.636 54.3656 11.8088C54.1927 12.3704 54.236 12.8025 54.4089 13.2345C54.625 13.6233 54.8844 14.0122 55.2734 14.3146C55.6624 14.6602 56.0947 15.0058 56.5702 15.3515C57.0456 15.6971 57.4347 16.0859 57.8237 16.5179C58.1695 16.95 58.4289 17.4684 58.5585 18.0733C58.6882 18.6781 58.645 19.3694 58.3856 20.1902C57.8237 21.8751 56.916 23.2145 55.6624 24.1649C54.3656 25.1154 52.7663 25.5906 50.8211 25.5906C50.1295 25.5906 49.5676 25.5474 49.0489 25.4178C48.5302 25.2882 48.1411 25.1586 47.7953 25.029C47.4495 24.8562 47.1469 24.7266 46.9308 24.597C46.7147 24.4673 46.5418 24.3377 46.4121 24.2945L48.1411 21.5295C48.2708 21.5727 48.4005 21.6591 48.6166 21.7887C48.8328 21.9184 49.0489 22.0048 49.3515 22.1344C49.6108 22.264 49.9134 22.3504 50.2592 22.48C50.5618 22.5664 50.9076 22.6096 51.2966 22.6096C51.5992 22.6096 51.945 22.5664 52.2908 22.48C52.6366 22.3936 52.9392 22.264 53.2418 22.1344C53.5444 21.9615 53.8037 21.7455 54.0631 21.5295C54.2792 21.2703 54.4521 20.9679 54.5818 20.6222C54.7547 20.1038 54.7115 19.6718 54.4953 19.3262C54.2792 18.9805 53.9766 18.6349 53.5876 18.2893C53.1986 17.9436 52.7663 17.6412 52.2908 17.2956C51.8153 16.95 51.4263 16.5611 51.0805 16.0859C50.7347 15.6539 50.4753 15.0922 50.3457 14.4874C50.216 13.8825 50.3024 13.1481 50.5618 12.2408C51.0373 10.6423 51.945 9.38941 53.2418 8.48214C54.5386 7.57487 56.0947 7.09963 57.8669 7.09963C58.5153 7.09963 59.1205 7.14283 59.596 7.22924C60.0714 7.31564 60.5037 7.44526 60.8495 7.57487C61.1953 7.70448 61.4547 7.83409 61.714 7.9637C61.9734 8.09331 62.1031 8.17971 62.2327 8.22292L60.5037 10.9879C60.2876 10.8151 60.1147 10.7287 59.9418 10.6423Z" fill="white"/>
<defs>
<linearGradient id="paint0_linear" x1="23.7228" y1="13.5032" x2="23.7228" y2="35.3354" gradientUnits="userSpaceOnUse">
<stop stop-color="#F8AF12"/>
<stop offset="1" stop-color="#F7DCA3"/>
</linearGradient>
<linearGradient id="paint1_linear" x1="25.7353" y1="17.1271" x2="22.1923" y2="5.26886" gradientUnits="userSpaceOnUse">
<stop stop-color="#125EDC"/>
<stop offset="1" stop-color="#4D8AF0"/>
</linearGradient>
</defs>
</svg>
