<svg width="57" height="66" viewBox="0 0 57 66" fill="none" xmlns="http://www.w3.org/2000/svg">
<path d="M48.8889 5H6.11111C2.73568 5 0 7.81384 0 11.2857V42.7143C0 46.1862 2.73568 49 6.11111 49H48.8889C52.2643 49 55 46.1862 55 42.7143V11.2857C55 7.81384 52.2595 5 48.8889 5ZM16.099 30.3295C17.8836 32.168 20.7959 32.168 22.5796 30.3295C23.4748 29.4087 24.9247 29.4087 25.8204 30.3295C26.7161 31.2502 26.7156 32.7416 25.8204 33.6629C24.0329 35.5014 21.6878 36.4207 19.3398 36.4207C16.9918 36.4207 14.6457 35.5015 12.8591 33.6629C11.1241 31.8911 10.1693 29.5143 10.1693 27C10.1693 24.4857 11.0382 22.1138 12.8543 20.3332C16.4293 16.6561 22.2416 16.6561 25.8118 20.3332C26.707 21.254 26.707 22.7454 25.8118 23.6666C24.9166 24.5879 23.4667 24.5874 22.571 23.6666C20.7864 21.828 17.874 21.828 16.0904 23.6666C15.23 24.5545 14.7526 25.7429 14.7526 27C14.7526 28.2571 15.23 29.4455 16.099 30.3295ZM34.4323 30.3295C36.2169 32.168 39.1293 32.168 40.9129 30.3295C41.8081 29.4087 43.2581 29.4087 44.1537 30.3295C45.0494 31.2502 45.0489 32.7416 44.1537 33.6629C42.3662 35.5014 40.0211 36.4207 37.6731 36.4207C35.3251 36.4207 32.979 35.5015 31.1924 33.6629C29.4575 31.8911 28.5026 29.5143 28.5026 27C28.5026 24.4857 29.3715 22.1138 31.1877 20.3332C34.7627 16.6561 40.5749 16.6561 44.1451 20.3332C45.0403 21.254 45.0403 22.7454 44.1451 23.6666C43.25 24.5879 41.8 24.5874 40.9043 23.6666C39.1197 21.828 36.2074 21.828 34.4237 23.6666C33.5634 24.5545 33.0859 25.7429 33.0859 27C33.0859 28.2571 33.5634 29.4455 34.4323 30.3295Z" fill="url(#paint0_linear_2246_1569)"/>
<rect y="54" width="51" height="4" rx="2" fill="#FFD200"/>
<rect y="62" width="37" height="4" rx="2" fill="#FFD200"/>
<defs>
<linearGradient id="paint0_linear_2246_1569" x1="40.0755" y1="3.5537" x2="-9.80173" y2="31.5169" gradientUnits="userSpaceOnUse">
<stop stop-color="#4D8AF0"/>
<stop offset="1" stop-color="#125EDC"/>
</linearGradient>
</defs>
</svg>
