<svg width="66" height="66" viewBox="0 0 66 66" fill="none" xmlns="http://www.w3.org/2000/svg">
<path d="M38 18.2727H32.7836C30.6073 18.2727 28.4655 19.4182 27.2909 20.9455L24.1818 10.6364H14.2673L6.01091 37.3636H11.8491L14.4055 29.7273H24.1818V45H6.90909C3.10909 45 0 41.5636 0 37.3636V10.6364C0 6.43636 3.10909 3 6.90909 3H31.0909C34.8909 3 38 6.43636 38 10.6364V18.2727ZM22.4891 25.9091H15.5109L18.9655 14.7218L22.4891 25.9091Z" fill="url(#paint0_linear_2246_1581)"/>
<path d="M34.9091 22H59.0909C62.8909 22 66 25.2727 66 29.2727V54.7273C66 58.7273 62.8909 62 59.0909 62H34.9091C31.1091 62 28 58.7273 28 54.7273V29.2727C28 25.2727 31.1091 22 34.9091 22ZM59.9545 40.1818V36.2545H49.0036V28.3636H44.9964V36.2545H34.0455V40.1818H38.4673C38.8473 43.2727 40.4018 46.9091 42.8891 49.7091C39.8836 51.0182 36.36 51.9636 34.9091 51.9636C34.8745 52.0364 35.6691 55.4909 35.6 57.2727C38.5018 57.2727 43.2345 55.4545 46.9309 53.0909C50.6964 55.4545 55.4982 57.2727 58.4691 57.2727C58.4 55.4909 59.16 52.0364 59.16 51.9636C57.6745 51.9636 54.0127 50.9818 50.9382 49.6727C53.3564 46.8727 54.8764 43.2364 55.2564 40.1818H59.9545ZM46.7927 47.2C45.0655 45.5273 43.8564 43.0909 43.3036 40.1818H50.5236C49.9364 43.0909 48.7618 45.5273 47.0691 47.2L46.9309 47.3091C46.9309 47.3091 46.8273 47.2364 46.7927 47.2Z" fill="#FFD200"/>
<defs>
<linearGradient id="paint0_linear_2246_1581" x1="27.6885" y1="1.61944" x2="-11.1999" y2="17.4002" gradientUnits="userSpaceOnUse">
<stop stop-color="#4D8AF0"/>
<stop offset="1" stop-color="#125EDC"/>
</linearGradient>
</defs>
</svg>
